<?xml version="1.0" standalone="no"?>
<!DOCTYPE svg PUBLIC "-//W3C//DTD SVG 20010904//EN"
 "http://www.w3.org/TR/2001/REC-SVG-20010904/DTD/svg10.dtd">
<svg version="1.0" xmlns="http://www.w3.org/2000/svg"
 width="509.000000pt" height="339.000000pt" viewBox="0 0 509.000000 339.000000"
 preserveAspectRatio="xMidYMid meet">

<g transform="translate(0.000000,339.000000) scale(0.100000,-0.100000)"
fill="#000000" stroke="none">
<path d="M0 2430 c0 -560 4 -960 9 -960 5 0 12 6 14 13 4 7 6 6 6 -5 1 -9 14
-21 31 -27 30 -10 37 -2 31 32 -1 5 4 5 10 1 9 -5 10 -2 6 10 -4 10 -3 15 4
11 5 -4 7 -15 4 -24 -8 -27 4 -51 26 -51 12 0 24 -12 33 -32 14 -32 14 -33 15
-7 1 25 26 47 39 34 3 -3 0 -5 -6 -5 -7 0 -12 -10 -12 -21 0 -18 2 -19 15 -9
12 10 15 10 15 0 0 -9 7 -7 21 6 21 19 22 19 15 -3 -4 -12 -2 -24 4 -28 5 -3
10 1 10 9 0 9 5 16 10 16 6 0 10 -7 10 -16 0 -13 3 -14 14 -5 10 9 20 9 41 -1
22 -10 28 -9 36 3 5 8 8 19 8 24 0 6 -3 4 -6 -2 -2 -7 -11 -13 -19 -13 -7 0
-11 6 -8 14 4 9 15 13 31 10 15 -3 30 1 36 8 6 10 8 9 4 -4 -3 -9 1 -24 8 -35
9 -11 15 -13 16 -5 1 6 2 16 3 21 0 5 5 13 10 18 5 5 6 3 2 -4 -5 -9 -1 -13
11 -13 15 0 16 -2 3 -11 -11 -8 -12 -12 -2 -16 6 -2 12 -9 12 -15 0 -10 25
-38 34 -38 13 0 44 44 39 56 -3 8 1 14 10 14 9 0 22 3 31 6 11 4 19 -2 25 -17
5 -13 10 -19 10 -12 1 6 10 10 20 8 14 -3 19 2 18 15 -1 14 -5 16 -13 9 -8 -7
-14 -7 -18 0 -8 13 22 28 54 27 15 -1 29 -10 37 -26 8 -16 13 -19 13 -9 0 9 9
19 20 22 17 4 20 2 15 -16 -5 -17 -4 -19 4 -7 6 8 11 11 11 6 0 -6 5 -5 11 1
9 9 15 8 27 -3 8 -8 17 -12 20 -9 4 3 0 10 -7 14 -11 7 -9 11 9 21 25 13 40 6
22 -12 -15 -15 -16 -32 -2 -23 5 3 10 1 10 -4 0 -6 5 -11 10 -11 6 0 10 8 10
18 0 14 2 15 10 2 9 -13 11 -13 21 0 8 11 9 6 4 -20 l-6 -35 16 29 c15 29 9
45 -17 46 -5 0 -8 4 -8 10 0 10 16 6 68 -17 29 -12 34 -12 48 1 21 22 25 20
18 -9 -4 -15 -2 -25 5 -25 6 0 11 5 11 10 0 6 6 10 14 10 8 0 16 4 18 9 2 4
12 5 23 0 17 -6 17 -8 3 -8 -10 -1 -18 -5 -18 -11 0 -14 37 -12 44 3 5 9 7 9
12 0 3 -7 13 -13 22 -13 13 0 12 3 -4 15 -18 13 -18 14 -1 15 11 0 15 4 11 12
-5 8 -2 9 9 5 10 -4 23 -9 30 -12 9 -4 13 1 13 14 -1 11 4 20 9 20 6 0 13 10
17 23 4 13 5 3 2 -22 -3 -30 -2 -40 4 -31 6 7 14 11 20 7 6 -3 13 2 15 11 4
14 5 13 6 -4 0 -13 5 -23 9 -23 4 0 6 17 4 38 -3 20 -1 33 4 29 4 -4 8 -20 9
-35 0 -19 6 -28 20 -30 15 -2 17 -1 6 6 -11 8 -10 14 10 33 30 30 69 27 70 -4
0 -12 3 -16 6 -9 8 19 23 14 23 -8 0 -13 6 -20 18 -19 10 0 12 3 5 6 -21 8
-15 22 7 16 11 -3 20 0 20 6 0 6 10 11 22 11 21 0 21 0 2 -15 -17 -13 -17 -14
-2 -15 10 0 23 9 30 20 15 24 50 28 42 5 -7 -17 11 -21 21 -5 3 6 24 10 46 10
21 0 39 5 39 10 0 6 5 10 10 10 6 0 3 -11 -6 -25 -17 -27 -19 -24 29 -39 8 -2
20 0 28 5 10 6 2 9 -25 9 -28 0 -37 3 -29 11 5 5 20 11 32 12 11 1 21 7 21 14
0 7 5 13 10 13 6 0 10 -12 10 -27 0 -42 15 -60 34 -44 9 8 16 22 16 33 0 17 3
18 15 8 13 -10 15 -9 15 10 0 22 1 22 18 7 27 -24 30 -22 27 26 -1 23 -1 34 2
25 5 -19 23 -25 23 -7 0 5 5 7 11 4 6 -5 4 -12 -8 -21 -12 -9 -13 -13 -5 -14
9 0 11 -8 8 -22 -4 -13 2 -7 11 12 23 46 22 45 35 32 8 -8 7 -17 -6 -36 -9
-15 -12 -26 -6 -26 5 0 10 4 10 8 0 4 14 16 32 27 23 13 33 15 36 6 3 -9 7 -9
17 -1 8 6 11 18 8 25 -3 8 8 2 25 -13 19 -17 26 -30 19 -34 -7 -4 0 -11 16
-17 35 -14 47 -14 47 -1 0 6 -7 10 -15 10 -8 0 -15 3 -15 8 0 14 36 38 49 34
8 -3 11 0 7 6 -4 6 2 8 14 5 12 -3 20 -14 20 -27 1 -20 2 -20 14 -3 19 25 26
21 27 -15 2 -32 2 -32 6 -5 3 16 2 36 -2 45 -7 20 -7 22 3 22 4 0 7 -6 7 -12
0 -8 10 -12 23 -10 12 2 22 -2 22 -8 0 -6 -4 -8 -10 -5 -5 3 -10 -1 -10 -9 0
-25 19 -18 26 9 8 32 41 34 47 3 4 -20 4 -20 6 4 0 15 6 30 13 34 7 4 8 3 4
-4 -4 -7 -1 -12 8 -12 9 0 16 5 16 11 0 14 26 40 33 33 7 -8 -14 -54 -25 -54
-4 0 -8 -4 -8 -8 0 -4 12 -8 27 -7 28 0 43 11 43 30 0 6 -5 3 -10 -5 -7 -12
-12 -12 -22 -2 -9 9 -8 12 6 12 13 0 16 5 12 23 l-6 22 12 -23 c8 -15 17 -21
30 -16 10 3 18 1 18 -5 0 -6 -5 -11 -12 -11 -6 0 -9 -2 -6 -5 8 -9 68 16 62
26 -3 5 -9 7 -13 5 -11 -7 -36 12 -27 21 5 4 11 3 13 -3 2 -7 13 -10 23 -7 14
4 20 0 20 -11 0 -9 5 -16 10 -16 6 0 10 7 10 15 0 8 6 15 13 15 8 0 7 3 -3 10
-8 5 -12 11 -9 15 3 3 16 -4 28 -14 13 -11 28 -22 34 -25 8 -3 3 -12 -12 -25
-28 -25 -11 -28 25 -5 17 12 23 22 19 35 -4 11 -2 19 4 19 6 0 11 -15 11 -32
1 -27 2 -30 11 -16 5 9 16 15 23 12 8 -3 23 -1 34 5 14 7 24 6 40 -4 11 -8 27
-12 35 -9 9 3 21 -4 31 -17 8 -13 18 -21 20 -18 10 9 -39 56 -53 51 -9 -3 -11
0 -6 7 4 7 13 10 20 7 8 -3 16 -2 18 2 2 4 2 1 1 -5 -2 -9 9 -13 32 -13 30 0
34 3 31 23 -2 12 -2 16 0 10 8 -23 23 -14 24 15 0 15 3 21 6 14 2 -6 10 -9 16
-5 7 4 4 -5 -5 -20 -27 -40 -22 -53 8 -23 28 27 49 33 59 16 4 -6 3 -10 -2 -9
-20 4 -23 -2 -8 -17 15 -15 17 -15 29 1 9 12 21 16 40 13 20 -4 29 0 38 15 9
17 8 19 -6 14 -10 -4 -19 -1 -23 9 -8 20 4 29 20 16 8 -7 17 -9 20 -6 4 4 11
-6 17 -22 7 -16 14 -24 18 -18 4 6 17 14 30 18 12 4 22 12 22 17 0 13 -14 11
-28 -3 -9 -9 -12 -7 -12 9 0 16 6 21 25 19 14 0 25 -5 25 -9 0 -5 4 -6 9 -2 6
3 15 -3 21 -12 10 -17 10 -16 8 2 -2 16 3 21 27 23 29 2 29 2 11 -13 -11 -8
-15 -15 -8 -15 6 0 18 9 26 21 8 12 19 18 25 14 6 -3 11 1 11 9 0 9 5 16 11
16 5 0 7 -4 4 -10 -12 -19 5 -30 30 -18 28 12 33 28 10 28 -8 0 -15 -5 -15
-12 0 -6 -3 -9 -6 -5 -10 9 10 32 29 33 10 1 16 -1 12 -4 -3 -3 7 -11 22 -18
l28 -11 -28 -8 c-15 -4 -32 -16 -38 -26 -8 -16 -6 -19 16 -19 14 0 24 5 22 12
-1 7 8 14 21 16 12 2 22 10 22 18 0 20 14 17 35 -7 l19 -20 18 23 c15 20 19
21 28 8 6 -8 8 -23 6 -32 -2 -10 0 -18 5 -18 5 0 9 11 9 24 0 14 10 30 25 40
21 14 25 14 25 2 0 -8 -6 -16 -13 -19 -6 -2 -8 -8 -4 -13 4 -4 17 -3 28 4 11
7 24 10 29 7 6 -4 10 0 10 9 0 8 -6 17 -13 19 -9 4 -9 6 1 6 7 1 21 -13 31
-30 18 -29 19 -30 26 -10 6 20 7 20 23 4 16 -16 17 -15 21 3 4 22 19 34 45 34
19 0 19 -1 1 -20 -14 -16 -16 -23 -7 -32 9 -9 12 -8 12 5 0 9 5 17 10 17 6 0
10 11 10 25 0 17 4 23 14 19 8 -3 25 0 38 7 13 7 27 12 31 11 5 -2 30 -4 55
-6 43 -3 74 -26 35 -26 -15 0 -15 -2 -3 -10 9 -6 17 -5 22 3 6 9 11 8 19 -3 8
-12 9 -11 4 7 -7 27 10 39 24 16 5 -10 13 -14 18 -9 4 5 2 11 -5 13 -6 3 -12
14 -11 26 0 21 1 21 9 2 l9 -20 1 20 c1 11 4 15 6 8 3 -7 12 -9 20 -6 9 3 14
-2 14 -16 0 -23 15 -29 23 -8 3 7 6 5 6 -5 1 -10 6 -18 12 -18 5 0 8 3 6 8 -2
4 4 15 15 25 10 9 18 14 18 10 0 -5 5 -1 10 7 6 10 10 11 10 3 0 -29 20 -10
26 24 7 35 8 36 16 13 5 -13 6 -30 4 -37 -4 -9 3 -12 27 -9 18 3 35 5 40 5 4
1 7 9 7 19 0 11 -3 13 -8 5 -4 -7 -13 -9 -21 -4 -9 6 -7 10 8 14 13 3 25 -1
31 -11 8 -14 9 -13 10 8 0 21 5 25 30 27 27 2 29 0 20 -17 -14 -26 7 -28 26
-2 11 14 13 14 14 2 0 -9 10 -16 25 -16 14 -1 22 2 19 7 -3 5 -11 9 -19 9 -14
0 -31 37 -21 47 3 4 6 -1 6 -10 0 -28 36 -30 79 -3 23 15 43 22 46 16 3 -6 0
-10 -8 -10 -12 0 -57 -40 -57 -51 0 -6 109 -3 116 4 3 3 1 8 -5 12 -6 3 -11 2
-11 -2 0 -5 -16 -7 -35 -5 -19 2 -32 9 -29 14 3 5 17 7 31 3 17 -4 32 0 45 11
18 17 20 17 48 0 20 -11 28 -13 25 -4 -6 16 31 41 47 32 7 -4 2 -12 -13 -20
-15 -8 -18 -13 -9 -13 23 -1 43 16 35 29 -4 7 1 13 14 17 14 3 21 13 21 29 l0
24 22 -22 23 -23 6 35 c5 28 7 30 8 9 1 -35 11 -42 33 -22 17 15 18 53 18 795
l0 778 -2545 0 -2545 0 0 -960z m4957 -592 c-3 -8 -6 -5 -6 6 -1 11 2 17 5 13
3 -3 4 -12 1 -19z m-100 -14 c-3 -3 -12 -4 -19 -1 -8 3 -5 6 6 6 11 1 17 -2
13 -5z m93 -14 c0 -5 -4 -10 -10 -10 -5 0 -10 5 -10 10 0 6 5 10 10 10 6 0 10
-4 10 -10z m-293 -16 c-3 -3 -12 -4 -19 -1 -8 3 -5 6 6 6 11 1 17 -2 13 -5z
m77 -8 c-10 -8 -21 -12 -24 -10 -5 6 21 24 34 24 6 0 1 -6 -10 -14z m171 2
c-11 -6 -23 -16 -27 -22 -4 -6 -10 -7 -14 -3 -9 9 25 36 46 36 10 0 9 -3 -5
-11z m-378 -20 c-3 -8 -6 -5 -6 6 -1 11 2 17 5 13 3 -3 4 -12 1 -19z m-1040
-130 c-3 -8 -6 -5 -6 6 -1 11 2 17 5 13 3 -3 4 -12 1 -19z m-27 -21 c0 -7 -4
-6 -10 3 -8 12 -10 12 -10 1 0 -8 -3 -12 -6 -8 -9 9 6 28 17 22 5 -4 9 -12 9
-18z m224 -11 c-3 -9 -10 -16 -15 -16 -5 0 -4 9 3 20 14 22 21 20 12 -4z m199
4 c-3 -12 -8 -19 -11 -16 -5 6 5 36 12 36 2 0 2 -9 -1 -20z m-776 -47 c-3 -10
-5 -4 -5 12 0 17 2 24 5 18 2 -7 2 -21 0 -30z m180 -15 c-3 -7 -5 -2 -5 12 0
14 2 19 5 13 2 -7 2 -19 0 -25z m-527 2 c0 -5 -5 -10 -11 -10 -5 0 -7 5 -4 10
3 6 8 10 11 10 2 0 4 -4 4 -10z m107 4 c-3 -3 -12 -4 -19 -1 -8 3 -5 6 6 6 11
1 17 -2 13 -5z m73 -20 c0 -2 -12 -2 -27 2 -27 6 -27 6 -8 -10 l20 -17 -20 3
c-12 2 -21 12 -23 25 -3 21 -1 22 27 12 17 -6 31 -13 31 -15z m257 10 c-3 -3
-12 -4 -19 -1 -8 3 -5 6 6 6 11 1 17 -2 13 -5z m-1119 -56 c10 -10 15 -10 22
2 7 11 10 11 10 2 0 -20 -28 -25 -45 -8 -9 9 -13 16 -8 16 5 0 15 -6 21 -12z
m-522 -35 c-10 -10 -19 5 -10 18 6 11 8 11 12 0 2 -7 1 -15 -2 -18z m651 11
c-3 -3 -12 -4 -19 -1 -8 3 -5 6 6 6 11 1 17 -2 13 -5z m-2027 -14 c11 -7 7
-10 -18 -10 -20 0 -31 4 -27 10 8 13 26 13 45 0z m177 -47 c-3 -10 -5 -2 -5
17 0 19 2 27 5 18 2 -10 2 -26 0 -35z m-27 10 c0 -20 -3 -24 -11 -16 -7 7 -9
19 -6 27 10 24 17 19 17 -11z m690 17 c0 -5 -2 -10 -4 -10 -3 0 -8 5 -11 10
-3 6 -1 10 4 10 6 0 11 -4 11 -10z m167 -32 c-3 -8 -6 -5 -6 6 -1 11 2 17 5
13 3 -3 4 -12 1 -19z m-606 -6 c-7 -2 -18 1 -23 6 -8 8 -4 9 13 5 13 -4 18 -8
10 -11z m-27 -46 c-6 -16 -24 -23 -24 -8 0 10 22 33 27 28 2 -2 1 -11 -3 -20z"/>
<path d="M5020 1781 c0 -17 18 -21 24 -6 3 9 0 15 -9 15 -8 0 -15 -4 -15 -9z"/>
<path d="M4550 1709 c0 -5 5 -7 10 -4 6 3 10 8 10 11 0 2 -4 4 -10 4 -5 0 -10
-5 -10 -11z"/>
<path d="M4865 1710 c11 -5 27 -9 35 -9 9 0 8 4 -5 9 -11 5 -27 9 -35 9 -9 0
-8 -4 5 -9z"/>
<path d="M4072 1638 c2 -6 19 -12 38 -15 39 -4 37 0 -8 15 -25 8 -33 9 -30 0z"/>
<path d="M4380 1640 c0 -5 5 -10 11 -10 5 0 7 5 4 10 -3 6 -8 10 -11 10 -2 0
-4 -4 -4 -10z"/>
<path d="M4046 1615 c4 -8 10 -15 15 -15 4 0 6 7 3 15 -4 8 -10 15 -15 15 -4
0 -6 -7 -3 -15z"/>
<path d="M4010 1610 c0 -5 5 -10 10 -10 6 0 10 5 10 10 0 6 -4 10 -10 10 -5 0
-10 -4 -10 -10z"/>
<path d="M2880 1481 c0 -5 7 -11 15 -15 8 -3 15 -1 15 3 0 5 -7 11 -15 15 -8
3 -15 1 -15 -3z"/>
<path d="M3030 1479 c0 -5 5 -7 10 -4 6 3 10 8 10 11 0 2 -4 4 -10 4 -5 0 -10
-5 -10 -11z"/>
<path d="M2650 1470 c0 -5 5 -10 10 -10 6 0 10 5 10 10 0 6 -4 10 -10 10 -5 0
-10 -4 -10 -10z"/>
<path d="M2690 1470 c-9 -6 -10 -10 -3 -10 6 0 15 5 18 10 8 12 4 12 -15 0z"/>
<path d="M3050 1459 c0 -5 5 -7 10 -4 6 3 10 8 10 11 0 2 -4 4 -10 4 -5 0 -10
-5 -10 -11z"/>
<path d="M0 1446 c0 -9 5 -16 10 -16 6 0 10 4 10 9 0 6 -4 13 -10 16 -5 3 -10
-1 -10 -9z"/>
<path d="M2421 1444 c0 -11 3 -14 6 -6 3 7 2 16 -1 19 -3 4 -6 -2 -5 -13z"/>
<path d="M2240 1440 c0 -5 5 -10 10 -10 6 0 10 5 10 10 0 6 -4 10 -10 10 -5 0
-10 -4 -10 -10z"/>
<path d="M2470 1440 c0 -5 5 -10 11 -10 5 0 7 5 4 10 -3 6 -8 10 -11 10 -2 0
-4 -4 -4 -10z"/>
<path d="M1433 1426 c5 -16 27 -19 27 -3 0 7 -7 14 -15 14 -9 0 -14 -5 -12
-11z"/>
<path d="M2690 1410 c13 -11 24 -20 26 -20 1 0 2 9 1 20 -1 14 -8 20 -26 20
l-24 0 23 -20z"/>
<path d="M130 1410 c0 -5 7 -10 15 -10 8 0 15 5 15 10 0 6 -7 10 -15 10 -8 0
-15 -4 -15 -10z"/>
<path d="M720 1391 c0 -5 -3 -17 -7 -27 -4 -11 -3 -15 4 -11 14 9 24 47 12 47
-5 0 -9 -4 -9 -9z"/>
<path d="M1325 1380 c3 -5 8 -10 11 -10 2 0 4 5 4 10 0 6 -5 10 -11 10 -5 0
-7 -4 -4 -10z"/>
<path d="M1650 1380 c0 -5 5 -10 10 -10 6 0 10 5 10 10 0 6 -4 10 -10 10 -5 0
-10 -4 -10 -10z"/>
<path d="M1695 1380 c-3 -5 -1 -10 4 -10 6 0 11 5 11 10 0 6 -2 10 -4 10 -3 0
-8 -4 -11 -10z"/>
<path d="M431 1364 c0 -11 3 -14 6 -6 3 7 2 16 -1 19 -3 4 -6 -2 -5 -13z"/>
<path d="M1277 1373 c-4 -3 -7 -11 -7 -17 0 -6 5 -5 12 2 6 6 9 14 7 17 -3 3
-9 2 -12 -2z"/>
<path d="M2680 1376 c0 -2 7 -7 16 -10 8 -3 12 -2 9 4 -6 10 -25 14 -25 6z"/>
</g>
</svg>
